<svg width="403" height="117" viewBox="0 0 403 117" fill="none" xmlns="http://www.w3.org/2000/svg">
<path d="M0.118714 3.01883L34.5372 112.558C34.946 113.859 35.6941 114.984 36.6794 115.779C37.6647 116.574 38.8394 117 40.0433 117H64.9438C66.2977 117 67.5061 116.024 67.9646 114.56L102.882 3.04471C103.371 1.48366 102.273 -0.128698 100.837 0.0404889L73.1264 3.30312C72.2111 3.41086 71.3414 3.81653 70.6198 4.47246C69.8981 5.1284 69.3544 6.00735 69.0525 7.00605L51.6644 64.528L34.158 6.74949C33.8536 5.7448 33.3045 4.86168 32.5759 4.20516C31.8473 3.54864 30.9699 3.14634 30.0481 3.0461L2.14834 0.010442C0.716194 -0.145108 -0.369732 1.46448 0.118714 3.01883Z" fill="#FB7479"/>
<path d="M191.144 50.072L175.208 95H161.512L145.576 50.072H157.224L168.36 83.992L179.56 50.072H191.144ZM201.222 55.576C199.302 55.576 197.723 55.0213 196.486 53.912C195.291 52.76 194.694 51.352 194.694 49.688C194.694 47.9813 195.291 46.5733 196.486 45.464C197.723 44.312 199.302 43.736 201.222 43.736C203.099 43.736 204.635 44.312 205.83 45.464C207.067 46.5733 207.686 47.9813 207.686 49.688C207.686 51.352 207.067 52.76 205.83 53.912C204.635 55.0213 203.099 55.576 201.222 55.576ZM206.662 59.288V95H195.718V59.288H206.662ZM229.121 95.512C226.006 95.512 223.233 94.9787 220.801 93.912C218.369 92.8453 216.449 91.3947 215.041 89.56C213.633 87.6827 212.844 85.592 212.673 83.288H223.489C223.617 84.5253 224.193 85.528 225.217 86.296C226.241 87.064 227.5 87.448 228.993 87.448C230.358 87.448 231.404 87.192 232.129 86.68C232.897 86.1253 233.281 85.4213 233.281 84.568C233.281 83.544 232.748 82.7973 231.681 82.328C230.614 81.816 228.886 81.2613 226.497 80.664C223.937 80.0667 221.804 79.448 220.097 78.808C218.39 78.1253 216.918 77.08 215.681 75.672C214.444 74.2213 213.825 72.28 213.825 69.848C213.825 67.8 214.38 65.944 215.489 64.28C216.641 62.5733 218.305 61.2293 220.481 60.248C222.7 59.2667 225.324 58.776 228.353 58.776C232.833 58.776 236.353 59.8853 238.913 62.104C241.516 64.3227 243.009 67.2667 243.393 70.936H233.281C233.11 69.6987 232.556 68.7173 231.617 67.992C230.721 67.2667 229.526 66.904 228.033 66.904C226.753 66.904 225.772 67.16 225.089 67.672C224.406 68.1413 224.065 68.8027 224.065 69.656C224.065 70.68 224.598 71.448 225.665 71.96C226.774 72.472 228.481 72.984 230.785 73.496C233.43 74.1787 235.585 74.8613 237.249 75.544C238.913 76.184 240.364 77.2507 241.601 78.744C242.881 80.1947 243.542 82.1573 243.585 84.632C243.585 86.7227 242.988 88.6 241.793 90.264C240.641 91.8853 238.956 93.1653 236.737 94.104C234.561 95.0427 232.022 95.512 229.121 95.512ZM255.785 55.576C253.865 55.576 252.286 55.0213 251.049 53.912C249.854 52.76 249.257 51.352 249.257 49.688C249.257 47.9813 249.854 46.5733 251.049 45.464C252.286 44.312 253.865 43.736 255.785 43.736C257.662 43.736 259.198 44.312 260.393 45.464C261.63 46.5733 262.249 47.9813 262.249 49.688C262.249 51.352 261.63 52.76 260.393 53.912C259.198 55.0213 257.662 55.576 255.785 55.576ZM261.225 59.288V95H250.281V59.288H261.225ZM285.412 95.512C281.913 95.512 278.756 94.7653 275.94 93.272C273.166 91.7787 270.969 89.6453 269.348 86.872C267.769 84.0987 266.98 80.856 266.98 77.144C266.98 73.4747 267.79 70.2533 269.411 67.48C271.033 64.664 273.252 62.5093 276.068 61.016C278.884 59.5227 282.041 58.776 285.54 58.776C289.038 58.776 292.196 59.5227 295.012 61.016C297.828 62.5093 300.046 64.664 301.668 67.48C303.289 70.2533 304.1 73.4747 304.1 77.144C304.1 80.8133 303.268 84.056 301.604 86.872C299.982 89.6453 297.742 91.7787 294.884 93.272C292.068 94.7653 288.91 95.512 285.412 95.512ZM285.412 86.04C287.502 86.04 289.273 85.272 290.724 83.736C292.217 82.2 292.964 80.0027 292.964 77.144C292.964 74.2853 292.238 72.088 290.788 70.552C289.38 69.016 287.63 68.248 285.54 68.248C283.406 68.248 281.636 69.016 280.228 70.552C278.82 72.0453 278.116 74.2427 278.116 77.144C278.116 80.0027 278.798 82.2 280.164 83.736C281.572 85.272 283.321 86.04 285.412 86.04ZM331.666 58.904C335.847 58.904 339.175 60.2693 341.65 63C344.167 65.688 345.426 69.4 345.426 74.136V95H334.546V75.608C334.546 73.2187 333.927 71.3627 332.69 70.04C331.452 68.7173 329.788 68.056 327.698 68.056C325.607 68.056 323.943 68.7173 322.706 70.04C321.468 71.3627 320.85 73.2187 320.85 75.608V95H309.906V59.288H320.85V64.024C321.959 62.4453 323.452 61.208 325.33 60.312C327.207 59.3733 329.319 58.904 331.666 58.904Z" fill="white"/>
</svg>
